<svg xmlns="http://www.w3.org/2000/svg" xmlns:xlink="http://www.w3.org/1999/xlink" width="512" zoomAndPan="magnify" viewBox="0 0 384 383.999986" height="512" preserveAspectRatio="xMidYMid meet" version="1.2"><defs><filter x="0%" y="0%" width="100%" filterUnits="objectBoundingBox" id="1f8d72515c" height="100%"><feColorMatrix values="0 0 0 0 1 0 0 0 0 1 0 0 0 0 1 0 0 0 1 0" type="matrix" in="SourceGraphic"/></filter><clipPath id="2fa6e1dc98"><path d="M 0.0898438 1 L 136.746094 1 L 136.746094 176.203125 L 0.0898438 176.203125 Z M 0.0898438 1 "/></clipPath><clipPath id="15dce29101"><rect x="0" width="137" y="0" height="177"/></clipPath><clipPath id="405311532a"><path d="M 0.644531 0.9375 L 137.300781 0.9375 L 137.300781 176.140625 L 0.644531 176.140625 Z M 0.644531 0.9375 "/></clipPath><clipPath id="6db4b519a7"><rect x="0" width="138" y="0" height="177"/></clipPath><clipPath id="a7019d7b73"><path d="M 60.699219 144.9375 L 235.902344 144.9375 L 235.902344 320.140625 L 60.699219 320.140625 Z M 60.699219 144.9375 "/></clipPath><clipPath id="9a4d7841e9"><path d="M 148.300781 144.9375 C 99.921875 144.9375 60.699219 184.15625 60.699219 232.539062 C 60.699219 280.917969 99.921875 320.140625 148.300781 320.140625 C 196.683594 320.140625 235.902344 280.917969 235.902344 232.539062 C 235.902344 184.15625 196.683594 144.9375 148.300781 144.9375 Z M 148.300781 144.9375 "/></clipPath><clipPath id="7f7c24a0d0"><path d="M 0 3 L 175.203125 3 L 175.203125 178.203125 L 0 178.203125 Z M 0 3 "/></clipPath><clipPath id="6e9b137b1a"><path d="M 87.601562 3 C 39.21875 3 0 42.21875 0 90.601562 C 0 138.980469 39.21875 178.203125 87.601562 178.203125 C 135.984375 178.203125 175.203125 138.980469 175.203125 90.601562 C 175.203125 42.21875 135.984375 3 87.601562 3 Z M 87.601562 3 "/></clipPath><clipPath id="e224385e57"><path d="M 0.433594 0.800781 L 250 0.800781 L 250 319 L 0.433594 319 Z M 0.433594 0.800781 "/></clipPath><clipPath id="e8614bed6b"><path d="M 125.214844 0.800781 L 250 319 L 0.433594 319 Z M 125.214844 0.800781 "/></clipPath><clipPath id="008b5dce81"><rect x="0" width="250" y="0" height="320"/></clipPath></defs><g id="fa7628e0c2"><g mask="url(#9d3f8747c0)" transform="matrix(1,0,0,1,77,2)"><g clip-path="url(#15dce29101)"><g clip-rule="nonzero" clip-path="url(#2fa6e1dc98)"><path style=" stroke:none;fill-rule:nonzero;fill:#0082ce;fill-opacity:1;" d="M 0.0898438 1 L 136.746094 1 L 136.746094 176.089844 L 0.0898438 176.089844 Z M 0.0898438 1 "/></g></g><mask id="9d3f8747c0"><g filter="url(#1f8d72515c)"><rect x="0" width="384" y="0" height="383.999986" style="fill:#000000;fill-opacity:0.87;stroke:none;"/></g></mask></g><g mask="url(#f928c8e1c1)" transform="matrix(1,0,0,1,11,144)"><g clip-path="url(#6db4b519a7)"><g clip-rule="nonzero" clip-path="url(#405311532a)"><path style=" stroke:none;fill-rule:nonzero;fill:#61738d;fill-opacity:1;" d="M 0.644531 0.9375 L 137.300781 0.9375 L 137.300781 176.027344 L 0.644531 176.027344 Z M 0.644531 0.9375 "/></g></g><mask id="f928c8e1c1"><g filter="url(#1f8d72515c)"><rect x="0" width="384" y="0" height="383.999986" style="fill:#000000;fill-opacity:0.87;stroke:none;"/></g></mask></g><g clip-rule="nonzero" clip-path="url(#a7019d7b73)"><g clip-rule="nonzero" clip-path="url(#9a4d7841e9)"><path style=" stroke:none;fill-rule:nonzero;fill:#61738d;fill-opacity:1;" d="M 60.699219 144.9375 L 235.902344 144.9375 L 235.902344 320.140625 L 60.699219 320.140625 Z M 60.699219 144.9375 "/></g></g><g clip-rule="nonzero" clip-path="url(#7f7c24a0d0)"><g clip-rule="nonzero" clip-path="url(#6e9b137b1a)"><path style=" stroke:none;fill-rule:nonzero;fill:#0082ce;fill-opacity:1;" d="M 0 3 L 175.203125 3 L 175.203125 178.203125 L 0 178.203125 Z M 0 3 "/></g></g><g mask="url(#51e3b118bc)" transform="matrix(1,0,0,1,134,62)"><g clip-path="url(#008b5dce81)"><g clip-rule="nonzero" clip-path="url(#e224385e57)"><g clip-rule="nonzero" clip-path="url(#e8614bed6b)"><path style=" stroke:none;fill-rule:nonzero;fill:#009689;fill-opacity:1;" d="M 0.433594 0.800781 L 250 0.800781 L 250 318.609375 L 0.433594 318.609375 Z M 0.433594 0.800781 "/></g></g></g><mask id="51e3b118bc"><g filter="url(#1f8d72515c)"><rect x="0" width="384" y="0" height="383.999986" style="fill:#000000;fill-opacity:0.87;stroke:none;"/></g></mask></g></g></svg>